<?xml version="1.0" encoding="UTF-8" standalone="no"?>
<svg
   version="1.0"
   width="512.000000pt"
   height="512.000000pt"
   viewBox="0 0 512.000000 512.000000"
   preserveAspectRatio="xMidYMid meet"
   id="svg135" xmlns="http://www.w3.org/2000/svg"
   xmlns:svg="http://www.w3.org/2000/svg">

  <g
     transform="translate(0.000000,512.000000) scale(0.100000,-0.100000)"
     fill="#000000"
     stroke="none"
     id="g133">
    <path
       d="m 1140,3967 c -44,-22 -50,-62 -43,-295 2.3245,-788.8381 -3.0454,-1618.6889 2,-2256 l 26,-25 25,-26 h 1395 1394 l 23,23 23,23 3,1247 c 2,897 -1,1255 -9,1274 -6,15 -24,31 -41,37 -48,17 -2765,15 -2798,-2 z m 1457,-461 c 27,-24 28,-27 32,-150 l 3,-125 53,-11 c 132,-27 304,-143 389,-263 159,-222 179,-459 59,-690 -49,-96 -171,-218 -270,-270 -183,-96 -400,-103 -589,-17 -352,159 -495,542 -328,874 72,143 175,247 309,311 61,29 94,38 203,61 21,4 22,8 22,123 0,114 1,121 26,150 31,37 54,39 91,7 z"
       id="path127" />
    <path
       d="M2514 3478 c-5 -7 -10 -197 -12 -423 -3 -328 -7 -414 -18 -430 -17 -24 -18 -78 -1 -106 14 -24 24 -14 -198 -188 -200 -157 -201 -158 -190 -169 7 -7 34 8 81 46 180 144 336 258 364 268 49 16 84 58 84 98 0 19 -8 43 -17 54 -15 17 -17 57 -17 428 0 306 -3 413 -12 422 -16 16 -55 15 -64 0z"
       id="path129" />
    <path
       d="M2600 2476 c0 -8 32 -36 71 -63 40 -26 78 -52 85 -58 9 -6 17 -6 24 1 8 8 -4 22 -42 50 -100 73 -138 92 -138 70z"
       id="path131" />
  </g>
</svg>
